<svg id="flat" height="512" viewBox="0 0 512 512" width="512" xmlns="http://www.w3.org/2000/svg"><path d="m283.51 276.41-3.39 57.65-5.3 89.94-2.82 48-16 16-16-16-2.82-48-5.3-89.94-3.39-57.65z" fill="#ffa100"/><path d="m192 32h128v128h-128z" fill="#ffc431"/><path d="m288 192 16 24v24h-96v-24l16-24z" fill="#ffcc4d"/><path d="m256 240v40l-24.12 54.06-40.12 89.94-21.42 48-16 16-10.34-24 11.43-40 52.57-184z" fill="#ffc431"/><circle cx="232" cy="264" fill="#ffe28f" r="8"/><path d="m191.76 424-21.42 48-16 16-10.34-24 11.43-40z" fill="#ffa100"/><path d="m368 464-10.34 24-16-16-21.41-48-40.13-89.94-24.12-54.06v-40h48l52.57 184z" fill="#ffb401"/><circle cx="280" cy="264" fill="#ffe28f" r="8"/><path d="m368 464-10.34 24-16-16-21.41-48h36.32z" fill="#ffa100"/><g fill="#ffb401"><path d="m224 160h64v32h-64z"/><path d="m192 72a32 32 0 0 0 -32 32v40a16 16 0 0 0 16 16h16z"/><path d="m320 72a32 32 0 0 1 32 32v40a16 16 0 0 1 -16 16h-16z"/></g><path d="m224 64h64v64h-64z" fill="#ffa100"/><circle cx="256" cy="56" fill="#91c0ff" r="32"/><path d="m256 96a40 40 0 1 1 40-40 40.04552 40.04552 0 0 1 -40 40zm0-64a24 24 0 1 0 24 24 24.0275 24.0275 0 0 0 -24-24z" fill="#62798c"/><path d="m237.18 424h37.64l-2.82 48-16 16-16-16z" fill="#f78e00"/></svg>