<?xml version="1.0" encoding="UTF-8"?>
<!DOCTYPE svg PUBLIC "-//W3C//DTD SVG 1.1//EN" "http://www.w3.org/Graphics/SVG/1.1/DTD/svg11.dtd">
<svg xmlns="http://www.w3.org/2000/svg" version="1.1" width="512px" height="512px" style="shape-rendering:geometricPrecision; text-rendering:geometricPrecision; image-rendering:optimizeQuality; fill-rule:evenodd; clip-rule:evenodd" xmlns:xlink="http://www.w3.org/1999/xlink">
<g><path style="opacity:0.975" fill="#55abe0" d="M 427.5,-0.5 C 430.167,-0.5 432.833,-0.5 435.5,-0.5C 446.473,9.80628 457.14,20.4729 467.5,31.5C 453.535,44.9648 439.701,58.6314 426,72.5C 413.965,60.6318 402.131,48.6318 390.5,36.5C 402.527,23.8063 414.86,11.4729 427.5,-0.5 Z"/></g>
<g><path style="opacity:1" fill="#298ecc" d="M 467.5,31.5 C 471.5,34.8333 475.167,38.5 478.5,42.5C 464.994,56.173 451.66,70.0063 438.5,84C 449.66,96.3268 461.327,108.16 473.5,119.5C 469.833,123.833 465.833,127.833 461.5,131.5C 449.702,120.202 438.035,108.702 426.5,97C 425.833,96.3333 425.167,96.3333 424.5,97C 414.986,106.347 405.652,115.847 396.5,125.5C 408.188,137.521 419.855,149.521 431.5,161.5C 428.167,165.5 424.5,169.167 420.5,172.5C 408.702,161.202 397.035,149.702 385.5,138C 384.833,137.333 384.167,137.333 383.5,138C 373.986,147.347 364.652,156.847 355.5,166.5C 367.188,178.521 378.855,190.521 390.5,202.5C 386.833,206.833 382.833,210.833 378.5,214.5C 367.16,202.327 355.327,190.66 343,179.5C 329.006,192.66 315.173,205.994 301.5,219.5C 297.5,216.167 293.833,212.5 290.5,208.5C 303.965,194.535 317.631,180.701 331.5,167C 319.632,154.965 307.632,143.131 295.5,131.5C 299.167,127.167 303.167,123.167 307.5,119.5C 319.298,130.798 330.965,142.298 342.5,154C 343.167,154.667 343.833,154.667 344.5,154C 354.014,144.653 363.348,135.153 372.5,125.5C 360.812,113.479 349.145,101.479 337.5,89.5C 340.833,85.5 344.5,81.8333 348.5,78.5C 360.298,89.798 371.965,101.298 383.5,113C 384.167,113.667 384.833,113.667 385.5,113C 395.014,103.653 404.348,94.1525 413.5,84.5C 401.812,72.4793 390.145,60.4793 378.5,48.5C 382.167,44.1667 386.167,40.1667 390.5,36.5C 402.131,48.6318 413.965,60.6318 426,72.5C 439.701,58.6314 453.535,44.9648 467.5,31.5 Z"/></g>
<g><path style="opacity:0.978" fill="#55abe0" d="M 478.5,42.5 C 490.623,53.2847 501.623,64.9513 511.5,77.5C 511.5,78.1667 511.5,78.8333 511.5,79.5C 510.59,81.0188 509.757,82.6854 509,84.5C 497.298,96.3687 485.465,108.035 473.5,119.5C 461.327,108.16 449.66,96.3268 438.5,84C 451.66,70.0063 464.994,56.173 478.5,42.5 Z"/></g>
<g><path style="opacity:0.985" fill="#edeef1" d="M 178.5,72.5 C 154.144,97.8567 129.144,122.523 103.5,146.5C 94.1667,136.5 84.5,126.833 74.5,117.5C 97.6601,93.5066 121.327,70.0066 145.5,47C 148.167,46.3333 150.833,46.3333 153.5,47C 162.036,55.3683 170.369,63.8683 178.5,72.5 Z"/></g>
<g><path style="opacity:0.982" fill="#55abe0" d="M 378.5,48.5 C 390.145,60.4793 401.812,72.4793 413.5,84.5C 404.348,94.1525 395.014,103.653 385.5,113C 384.833,113.667 384.167,113.667 383.5,113C 371.965,101.298 360.298,89.798 348.5,78.5C 358.167,68.1667 368.167,58.1667 378.5,48.5 Z"/></g>
<g><path style="opacity:1" fill="#99a0b3" d="M 178.5,72.5 C 182.833,76.1667 186.833,80.1667 190.5,84.5C 165.833,108.5 141.5,132.833 117.5,157.5C 117.167,157.5 116.833,157.5 116.5,157.5C 113.036,154.538 109.703,151.371 106.5,148C 105.552,147.517 104.552,147.351 103.5,147.5C 103.5,147.167 103.5,146.833 103.5,146.5C 129.144,122.523 154.144,97.8567 178.5,72.5 Z"/></g>
<g><path style="opacity:0.996" fill="#edeef1" d="M 190.5,84.5 C 198.5,91.8333 206.167,99.5 213.5,107.5C 189.167,132.5 164.5,157.167 139.5,181.5C 132.202,174.703 125.035,167.703 118,160.5C 117.517,159.552 117.351,158.552 117.5,157.5C 141.5,132.833 165.833,108.5 190.5,84.5 Z"/></g>
<g><path style="opacity:0.982" fill="#55abe0" d="M 337.5,89.5 C 349.145,101.479 360.812,113.479 372.5,125.5C 363.348,135.153 354.014,144.653 344.5,154C 343.833,154.667 343.167,154.667 342.5,154C 330.965,142.298 319.298,130.798 307.5,119.5C 317.167,109.167 327.167,99.1667 337.5,89.5 Z"/></g>
<g><path style="opacity:0.987" fill="#55abe0" d="M 461.5,131.5 C 451.833,141.833 441.833,151.833 431.5,161.5C 419.855,149.521 408.188,137.521 396.5,125.5C 405.652,115.847 414.986,106.347 424.5,97C 425.167,96.3333 425.833,96.3333 426.5,97C 438.035,108.702 449.702,120.202 461.5,131.5 Z"/></g>
<g><path style="opacity:1" fill="#9ba1b4" d="M 213.5,107.5 C 217.833,111.167 221.833,115.167 225.5,119.5C 201.167,144.167 176.833,168.833 152.5,193.5C 152.167,193.5 151.833,193.5 151.5,193.5C 148.105,189.102 144.105,185.436 139.5,182.5C 139.5,182.167 139.5,181.833 139.5,181.5C 164.5,157.167 189.167,132.5 213.5,107.5 Z"/></g>
<g><path style="opacity:1" fill="#dddfe6" d="M 74.5,117.5 C 84.5,126.833 94.1667,136.5 103.5,146.5C 103.5,146.833 103.5,147.167 103.5,147.5C 92.8333,157.5 82.5,167.833 72.5,178.5C 63.8683,170.369 55.3683,162.036 47,153.5C 46.1834,150.036 46.5167,146.702 48,143.5C 56.7017,134.631 65.535,125.964 74.5,117.5 Z"/></g>
<g><path style="opacity:0.986" fill="#edeef1" d="M 225.5,119.5 C 234.132,127.631 242.632,135.964 251,144.5C 252.894,148.849 252.227,152.849 249,156.5C 239.631,165.702 230.464,175.035 221.5,184.5C 208.92,195.577 196.753,207.244 185,219.5C 184.536,220.094 184.369,220.761 184.5,221.5C 183.5,222.167 182.5,222.833 181.5,223.5C 171.161,214.161 161.494,204.161 152.5,193.5C 176.833,168.833 201.167,144.167 225.5,119.5 Z"/></g>
<g><path style="opacity:0.978" fill="#55abe0" d="M 295.5,131.5 C 307.632,143.131 319.632,154.965 331.5,167C 317.631,180.701 303.965,194.535 290.5,208.5C 286.5,204.833 282.5,201.167 278.5,197.5C 275.167,192.167 270.833,187.833 265.5,184.5C 263.167,181.997 261.001,179.331 259,176.5C 258.333,173.833 258.333,171.167 259,168.5C 270.673,155.661 282.839,143.328 295.5,131.5 Z"/></g>
<g><path style="opacity:0.987" fill="#55abe0" d="M 420.5,172.5 C 410.833,182.833 400.833,192.833 390.5,202.5C 378.855,190.521 367.188,178.521 355.5,166.5C 364.652,156.847 373.986,147.347 383.5,138C 384.167,137.333 384.833,137.333 385.5,138C 397.035,149.702 408.702,161.202 420.5,172.5 Z"/></g>
<g><path style="opacity:1" fill="#8991a7" d="M 103.5,147.5 C 104.552,147.351 105.552,147.517 106.5,148C 109.703,151.371 113.036,154.538 116.5,157.5C 105.833,168.5 95.1667,179.5 84.5,190.5C 80.1667,186.833 76.1667,182.833 72.5,178.5C 82.5,167.833 92.8333,157.5 103.5,147.5 Z"/></g>
<g><path style="opacity:1" fill="#dcdee5" d="M 116.5,157.5 C 116.833,157.5 117.167,157.5 117.5,157.5C 117.351,158.552 117.517,159.552 118,160.5C 125.035,167.703 132.202,174.703 139.5,181.5C 139.5,181.833 139.5,182.167 139.5,182.5C 128.833,192.833 118.167,203.167 107.5,213.5C 99.5,206.167 91.8333,198.5 84.5,190.5C 95.1667,179.5 105.833,168.5 116.5,157.5 Z"/></g>
<g><path style="opacity:0.981" fill="#55abe0" d="M 378.5,214.5 C 367.035,226.465 355.369,238.298 343.5,250C 341.541,250.931 339.541,251.764 337.5,252.5C 332.687,251.014 328.687,248.348 325.5,244.5C 322.167,239.167 317.833,234.833 312.5,231.5C 308.833,227.5 305.167,223.5 301.5,219.5C 315.173,205.994 329.006,192.66 343,179.5C 355.327,190.66 367.16,202.327 378.5,214.5 Z"/></g>
<g><path style="opacity:1" fill="#8991a6" d="M 139.5,182.5 C 144.105,185.436 148.105,189.102 151.5,193.5C 141.167,204.5 130.5,215.167 119.5,225.5C 115.167,221.833 111.167,217.833 107.5,213.5C 118.167,203.167 128.833,192.833 139.5,182.5 Z"/></g>
<g><path style="opacity:0.975" fill="#778098" d="M 221.5,184.5 C 228.5,192.167 235.833,199.5 243.5,206.5C 246.833,211.833 251.167,216.167 256.5,219.5C 267.5,231.167 278.833,242.5 290.5,253.5C 293.833,258.833 298.167,263.167 303.5,266.5C 309.5,272.833 315.5,279.167 321.5,285.5C 307.833,295.833 295.833,307.833 285.5,321.5C 279.167,315.5 272.833,309.5 266.5,303.5C 263.167,298.167 258.833,293.833 253.5,290.5C 242.5,278.833 231.167,267.5 219.5,256.5C 216.167,251.167 211.833,246.833 206.5,243.5C 199.5,235.833 192.167,228.5 184.5,221.5C 184.369,220.761 184.536,220.094 185,219.5C 196.753,207.244 208.92,195.577 221.5,184.5 Z"/></g>
<g><path style="opacity:0.943" fill="#556080" d="M 265.5,184.5 C 270.833,187.833 275.167,192.167 278.5,197.5C 270.833,204.5 263.5,211.833 256.5,219.5C 251.167,216.167 246.833,211.833 243.5,206.5C 251.167,199.5 258.5,192.167 265.5,184.5 Z"/></g>
<g><path style="opacity:1" fill="#dddfe6" d="M 151.5,193.5 C 151.833,193.5 152.167,193.5 152.5,193.5C 161.494,204.161 171.161,214.161 181.5,223.5C 173.369,232.132 165.036,240.632 156.5,249C 152.735,251.952 148.735,252.619 144.5,251C 135.964,242.632 127.631,234.132 119.5,225.5C 130.5,215.167 141.167,204.5 151.5,193.5 Z"/></g>
<g><path style="opacity:0.943" fill="#556080" d="M 312.5,231.5 C 317.833,234.833 322.167,239.167 325.5,244.5C 317.833,251.5 310.5,258.833 303.5,266.5C 298.167,263.167 293.833,258.833 290.5,253.5C 298.167,246.5 305.5,239.167 312.5,231.5 Z"/></g>
<g><path style="opacity:0.943" fill="#556080" d="M 206.5,243.5 C 211.833,246.833 216.167,251.167 219.5,256.5C 211.833,263.5 204.5,270.833 197.5,278.5C 192.167,275.167 187.833,270.833 184.5,265.5C 192.167,258.5 199.5,251.167 206.5,243.5 Z"/></g>
<g><path style="opacity:0.978" fill="#55abe0" d="M 184.5,265.5 C 187.833,270.833 192.167,275.167 197.5,278.5C 201.167,282.5 204.833,286.5 208.5,290.5C 194.535,303.965 180.701,317.631 167,331.5C 154.965,319.632 143.131,307.632 131.5,295.5C 143.328,282.839 155.661,270.673 168.5,259C 171.167,258.333 173.833,258.333 176.5,259C 179.331,261.001 181.997,263.167 184.5,265.5 Z"/></g>
<g><path style="opacity:0.988" fill="#ffce1a" d="M 388.5,332.5 C 369.5,350.833 350.833,369.5 332.5,388.5C 322.167,399.5 311.5,410.167 300.5,420.5C 298.827,419.657 297.66,418.324 297,416.5C 278.428,359.392 292.928,312.725 340.5,276.5C 369.652,264.711 398.985,264.545 428.5,276C 433.609,279.366 434.776,283.866 432,289.5C 417.632,304.035 403.132,318.369 388.5,332.5 Z"/></g>
<g><path style="opacity:1" fill="#febe34" d="M 340.5,276.5 C 292.928,312.725 278.428,359.392 297,416.5C 297.66,418.324 298.827,419.657 300.5,420.5C 296.669,425.164 292.336,429.33 287.5,433C 283.88,433.841 280.546,433.174 277.5,431C 262.118,393.207 264.784,356.707 285.5,321.5C 295.833,307.833 307.833,295.833 321.5,285.5C 327.435,281.7 333.768,278.7 340.5,276.5 Z"/></g>
<g><path style="opacity:0.943" fill="#556080" d="M 253.5,290.5 C 258.833,293.833 263.167,298.167 266.5,303.5C 258.833,310.5 251.5,317.833 244.5,325.5C 239.167,322.167 234.833,317.833 231.5,312.5C 239.167,305.5 246.5,298.167 253.5,290.5 Z"/></g>
<g><path style="opacity:1" fill="#298ecc" d="M 208.5,290.5 C 212.5,293.833 216.167,297.5 219.5,301.5C 205.994,315.173 192.66,329.006 179.5,343C 190.66,355.327 202.327,367.16 214.5,378.5C 210.833,382.833 206.833,386.833 202.5,390.5C 190.702,379.202 179.035,367.702 167.5,356C 166.833,355.333 166.167,355.333 165.5,356C 155.986,365.347 146.652,374.847 137.5,384.5C 149.188,396.521 160.855,408.521 172.5,420.5C 169.167,424.5 165.5,428.167 161.5,431.5C 149.702,420.202 138.035,408.702 126.5,397C 125.833,396.333 125.167,396.333 124.5,397C 114.986,406.347 105.652,415.847 96.5,425.5C 108.188,437.521 119.855,449.521 131.5,461.5C 127.833,465.833 123.833,469.833 119.5,473.5C 108.16,461.327 96.3268,449.66 84,438.5C 70.0063,451.66 56.173,464.994 42.5,478.5C 38.5,475.167 34.8333,471.5 31.5,467.5C 44.9648,453.535 58.6314,439.701 72.5,426C 60.6318,413.965 48.6318,402.131 36.5,390.5C 40.1667,386.167 44.1667,382.167 48.5,378.5C 60.2985,389.798 71.9651,401.298 83.5,413C 84.1667,413.667 84.8333,413.667 85.5,413C 95.0144,403.653 104.348,394.153 113.5,384.5C 101.812,372.479 90.1454,360.479 78.5,348.5C 81.8333,344.5 85.5,340.833 89.5,337.5C 101.298,348.798 112.965,360.298 124.5,372C 125.167,372.667 125.833,372.667 126.5,372C 136.014,362.653 145.348,353.153 154.5,343.5C 142.812,331.479 131.145,319.479 119.5,307.5C 123.167,303.167 127.167,299.167 131.5,295.5C 143.131,307.632 154.965,319.632 167,331.5C 180.701,317.631 194.535,303.965 208.5,290.5 Z"/></g>
<g><path style="opacity:0.981" fill="#55abe0" d="M 219.5,301.5 C 223.5,305.167 227.5,308.833 231.5,312.5C 234.833,317.833 239.167,322.167 244.5,325.5C 248.348,328.687 251.014,332.687 252.5,337.5C 251.764,339.541 250.931,341.541 250,343.5C 238.298,355.369 226.465,367.035 214.5,378.5C 202.327,367.16 190.66,355.327 179.5,343C 192.66,329.006 205.994,315.173 219.5,301.5 Z"/></g>
<g><path style="opacity:0.982" fill="#55abe0" d="M 119.5,307.5 C 131.145,319.479 142.812,331.479 154.5,343.5C 145.348,353.153 136.014,362.653 126.5,372C 125.833,372.667 125.167,372.667 124.5,372C 112.965,360.298 101.298,348.798 89.5,337.5C 99.1667,327.167 109.167,317.167 119.5,307.5 Z"/></g>
<g><path style="opacity:0.973" fill="#ffe78e" d="M 388.5,332.5 C 396.069,355.708 403.736,378.874 411.5,402C 410.333,407.167 407.167,410.333 402,411.5C 378.874,403.736 355.708,396.069 332.5,388.5C 350.833,369.5 369.5,350.833 388.5,332.5 Z"/></g>
<g><path style="opacity:0.982" fill="#55abe0" d="M 78.5,348.5 C 90.1454,360.479 101.812,372.479 113.5,384.5C 104.348,394.153 95.0144,403.653 85.5,413C 84.8333,413.667 84.1667,413.667 83.5,413C 71.9651,401.298 60.2985,389.798 48.5,378.5C 58.1667,368.167 68.1667,358.167 78.5,348.5 Z"/></g>
<g><path style="opacity:0.986" fill="#55abe0" d="M 202.5,390.5 C 192.833,400.833 182.833,410.833 172.5,420.5C 160.855,408.521 149.188,396.521 137.5,384.5C 146.652,374.847 155.986,365.347 165.5,356C 166.167,355.333 166.833,355.333 167.5,356C 179.035,367.702 190.702,379.202 202.5,390.5 Z"/></g>
<g><path style="opacity:0.975" fill="#55abe0" d="M 36.5,390.5 C 48.6318,402.131 60.6318,413.965 72.5,426C 58.6314,439.701 44.9648,453.535 31.5,467.5C 20.4729,457.14 9.80628,446.473 -0.5,435.5C -0.5,432.833 -0.5,430.167 -0.5,427.5C 11.4729,414.86 23.8063,402.527 36.5,390.5 Z"/></g>
<g><path style="opacity:0.986" fill="#55abe0" d="M 161.5,431.5 C 151.833,441.833 141.833,451.833 131.5,461.5C 119.855,449.521 108.188,437.521 96.5,425.5C 105.652,415.847 114.986,406.347 124.5,397C 125.167,396.333 125.833,396.333 126.5,397C 138.035,408.702 149.702,420.202 161.5,431.5 Z"/></g>
<g><path style="opacity:0.957" fill="#48db87" d="M 432.5,411.5 C 442.511,410.181 446.678,414.515 445,424.5C 440.288,440.929 429.788,447.096 413.5,443C 410.58,438.209 410.913,433.709 414.5,429.5C 418.675,428.505 422.509,426.839 426,424.5C 427.152,421.56 428.152,418.56 429,415.5C 430.102,414.051 431.269,412.718 432.5,411.5 Z"/></g>
<g><path style="opacity:0.926" fill="#48db86" d="M 465.5,411.5 C 474.5,409.841 478.833,413.508 478.5,422.5C 475.264,453.159 458.598,471.659 428.5,478C 423.713,478.879 419.047,478.545 414.5,477C 410.213,471.643 410.547,466.643 415.5,462C 444.333,459.833 459.833,444.333 462,415.5C 463.376,414.295 464.542,412.962 465.5,411.5 Z"/></g>
<g><path style="opacity:0.93" fill="#48db86" d="M 511.5,415.5 C 511.5,421.5 511.5,427.5 511.5,433.5C 502.5,476.5 476.5,502.5 433.5,511.5C 427.5,511.5 421.5,511.5 415.5,511.5C 410.588,506.683 410.254,501.517 414.5,496C 464.333,491.5 491.5,464.333 496,414.5C 501.517,410.254 506.683,410.588 511.5,415.5 Z"/></g>
<g><path style="opacity:0.977" fill="#55abe0" d="M 119.5,473.5 C 108.035,485.465 96.3687,497.298 84.5,509C 82.6854,509.757 81.0188,510.59 79.5,511.5C 78.8333,511.5 78.1667,511.5 77.5,511.5C 64.9513,501.623 53.2847,490.623 42.5,478.5C 56.173,464.994 70.0063,451.66 84,438.5C 96.3268,449.66 108.16,461.327 119.5,473.5 Z"/></g>
</svg>
